<svg width="832" height="795" fill="none" xmlns="http://www.w3.org/2000/svg"><g style="mix-blend-mode:screen"><path d="M208.526 95.865c15.952 0 28.884-12.926 28.884-28.871 0-15.946-12.932-28.872-28.884-28.872s-28.884 12.926-28.884 28.871c0 15.946 12.932 28.872 28.884 28.872z" fill="url(#paint0_radial_530_4656)"/><path d="M210.476 68.15c94.361 0 170.537-.52 170.537-1.157 0-.636-76.176-1.143-170.537-1.156 10.308-10.382 18.082-18.84 17.653-19.256-.429-.416-8.892 7.341-19.278 17.645C208.825 28.52 208.318 0 207.694 0s-1.131 28.52-1.157 64.226c-10.386-10.304-18.849-18.074-19.278-17.645-.429.429 7.345 8.887 17.653 19.256-93.607 0-168.912.52-168.912 1.156 0 .637 75.305 1.144 168.912 1.157-10.308 10.382-18.082 18.84-17.653 19.256.429.416 8.892-7.341 19.278-17.645.026 35.706.533 64.226 1.157 64.226s1.131-28.52 1.157-64.226c10.386 10.304 18.849 18.074 19.278 17.645.429-.429-7.345-8.887-17.653-19.256z" fill="url(#paint1_radial_530_4656)"/></g><g style="mix-blend-mode:screen" clip-path="url(#clip0_530_4656)"><path d="M789.994 356.253c11.596 0 20.997-18.691 20.997-41.747s-9.401-41.747-20.997-41.747-20.997 18.691-20.997 41.747 9.401 41.747 20.997 41.747z" fill="url(#paint2_radial_530_4656)"/><path d="M789.16 316.163c0 45.333.386 81.837.834 81.837.448 0 .833-36.492.833-81.837 22.801-.012 41.161-.754 41.161-1.669 0-.916-18.36-1.645-41.161-1.67 0-45.333-.385-81.837-.833-81.837-.448 0-.834 36.492-.834 81.837-22.8.012-41.16.754-41.16 1.67 0 .915 18.36 1.644 41.16 1.669z" fill="url(#paint3_radial_530_4656)"/></g><g style="mix-blend-mode:screen" clip-path="url(#clip1_530_4656)"><path d="M122.002 403.501c10.769 0 19.499-8.729 19.499-19.498 0-10.769-8.73-19.499-19.499-19.499-10.768 0-19.498 8.73-19.498 19.499 0 10.769 8.73 19.498 19.498 19.498z" fill="url(#paint4_radial_530_4656)"/><path d="M122.002 403.501c10.769 0 19.499-8.729 19.499-19.498 0-10.769-8.73-19.499-19.499-19.499-10.768 0-19.498 8.73-19.498 19.499 0 10.769 8.73 19.498 19.498 19.498z" fill="url(#paint5_radial_530_4656)"/><path d="M122.777 384.777c21.173-.006 38.223-.352 38.223-.78 0-.427-17.044-.768-38.223-.78-.006-21.173-.353-38.223-.78-38.223-.427 0-.768 17.044-.78 38.223-21.173.006-38.223.353-38.223.78 0 .428 17.044.768 38.223.78.006 21.173.353 38.223.78 38.223.427 0 .768-17.044.78-38.223z" fill="url(#paint6_radial_530_4656)"/><path d="M123.101 384.003c14.964-14.982 26.775-27.278 26.475-27.579-.3-.3-12.597 11.505-27.579 26.476-14.976-14.971-27.272-26.776-27.572-26.476-.3.301 11.505 12.597 26.475 27.579-14.965 14.982-26.776 27.278-26.475 27.579.3.3 12.596-11.506 27.578-26.476 14.982 14.965 27.279 26.776 27.579 26.476.3-.301-11.505-12.597-26.476-27.579h-.005z" fill="url(#paint7_radial_530_4656)"/></g><g style="mix-blend-mode:screen" clip-path="url(#clip2_530_4656)"><path d="M24.496 582.502c6.765 0 12.248-10.968 12.248-24.498 0-13.53-5.483-24.499-12.248-24.499-6.764 0-12.248 10.969-12.248 24.499s5.484 24.498 12.248 24.498z" fill="url(#paint8_radial_530_4656)"/><path d="M24.01 558.976c0 26.602.225 48.024.486 48.024.262 0 .487-21.414.487-48.024 13.3-.007 24.01-.443 24.01-.98 0-.537-10.71-.965-24.01-.979 0-26.603-.225-48.024-.487-48.024-.26 0-.486 21.414-.486 48.024-13.3.007-24.01.442-24.01.979 0 .537 10.71.965 24.01.98z" fill="url(#paint9_radial_530_4656)"/></g><g style="mix-blend-mode:screen" clip-path="url(#clip3_530_4656)"><path d="M475 191.126c13.317 0 24.112-10.804 24.112-24.131 0-13.328-10.795-24.132-24.112-24.132-13.317 0-24.112 10.804-24.112 24.132 0 13.327 10.795 24.131 24.112 24.131z" fill="url(#paint10_radial_530_4656)"/><path d="M476.628 167.961c78.771 0 142.361-.434 142.361-.966 0-.533-63.59-.956-142.361-.967 8.605-8.677 15.094-15.747 14.736-16.095-.358-.347-7.422 6.136-16.092 14.748-.022-29.843-.445-53.681-.966-53.681-.521 0-.944 23.838-.966 53.681-8.67-8.612-15.735-15.106-16.093-14.748-.358.359 6.131 7.429 14.737 16.095-78.142 0-141.005.434-141.005.967 0 .532 62.863.955 141.005.966-8.606 8.677-15.095 15.747-14.737 16.095.358.347 7.423-6.136 16.093-14.748.022 29.843.445 53.681.966 53.681.521 0 .944-23.838.966-53.681 8.67 8.612 15.734 15.106 16.092 14.748.358-.359-6.131-7.429-14.736-16.095z" fill="url(#paint11_radial_530_4656)"/></g><g style="mix-blend-mode:screen" clip-path="url(#clip4_530_4656)"><path d="M569.005 763.002c17.395 0 31.497-14.325 31.497-31.997s-14.102-31.998-31.497-31.998c-17.396 0-31.498 14.326-31.498 31.998s14.102 31.997 31.498 31.997z" fill="url(#paint12_radial_530_4656)"/><path d="M569.005 763.002c17.395 0 31.497-14.325 31.497-31.997s-14.102-31.998-31.497-31.998c-17.396 0-31.498 14.326-31.498 31.998s14.102 31.997 31.498 31.997z" fill="url(#paint13_radial_530_4656)"/><path d="M570.254 732.275c34.204-.01 61.746-.578 61.746-1.28 0-.701-27.533-1.26-61.746-1.279-.009-34.746-.569-62.725-1.259-62.725-.691 0-1.241 27.969-1.26 62.725-34.203.009-61.745.578-61.745 1.279 0 .702 27.533 1.261 61.745 1.28.01 34.746.569 62.725 1.26 62.725.69 0 1.241-27.969 1.259-62.725z" fill="url(#paint14_radial_530_4656)"/><path d="M570.777 731.005c24.174-24.586 43.254-44.765 42.768-45.258-.485-.492-20.348 18.881-44.55 43.447-24.192-24.566-44.055-43.939-44.541-43.447-.485.493 18.585 20.672 42.769 45.258-24.174 24.586-43.254 44.764-42.769 45.257.486.493 20.349-18.88 44.551-43.447 24.201 24.557 44.065 43.94 44.55 43.447.485-.493-18.585-20.671-42.768-45.257h-.01z" fill="url(#paint15_radial_530_4656)"/></g><defs><radialGradient id="paint0_radial_530_4656" cx="0" cy="0" r="1" gradientUnits="userSpaceOnUse" gradientTransform="matrix(28.8843 0 0 28.8711 208.526 66.993)"><stop stop-color="#fff"/><stop offset=".06" stop-color="#E5E5E5"/><stop offset=".21" stop-color="#A9A9A9"/><stop offset=".35" stop-color="#757575"/><stop offset=".5" stop-color="#4B4B4B"/><stop offset=".64" stop-color="#2A2A2A"/><stop offset=".77" stop-color="#131313"/><stop offset=".89" stop-color="#040404"/><stop offset="1"/></radialGradient><radialGradient id="paint1_radial_530_4656" cx="0" cy="0" r="1" gradientUnits="userSpaceOnUse" gradientTransform="matrix(130.863 0 0 130.804 208.526 66.993)"><stop stop-color="#fff"/><stop offset=".06" stop-color="#E5E5E5"/><stop offset=".21" stop-color="#A9A9A9"/><stop offset=".35" stop-color="#757575"/><stop offset=".5" stop-color="#4B4B4B"/><stop offset=".64" stop-color="#2A2A2A"/><stop offset=".77" stop-color="#131313"/><stop offset=".89" stop-color="#040404"/><stop offset="1"/></radialGradient><radialGradient id="paint2_radial_530_4656" cx="0" cy="0" r="1" gradientUnits="userSpaceOnUse" gradientTransform="matrix(0 41.7469 -20.9969 0 790 314.506)"><stop offset=".06" stop-color="#fff"/><stop offset=".14" stop-color="#D3D3D3" stop-opacity=".91"/><stop offset=".25" stop-color="#949494" stop-opacity=".79"/><stop offset=".36" stop-color="#5F5F5F" stop-opacity=".69"/><stop offset=".47" stop-color="#353535" stop-opacity=".61"/><stop offset=".56" stop-color="#181818" stop-opacity=".55"/><stop offset=".64" stop-color="#060606" stop-opacity=".51"/><stop offset=".7" stop-opacity=".5"/></radialGradient><radialGradient id="paint3_radial_530_4656" cx="0" cy="0" r="1" gradientUnits="userSpaceOnUse" gradientTransform="matrix(0 83.5062 -42 0 790 314.506)"><stop stop-color="#fff"/><stop offset="1"/></radialGradient><radialGradient id="paint4_radial_530_4656" cx="0" cy="0" r="1" gradientUnits="userSpaceOnUse" gradientTransform="rotate(-45 524.524 44.731) scale(19.4986)"><stop stop-color="#fff"/><stop offset=".53" stop-color="#8A8483" stop-opacity=".5"/><stop offset="1"/></radialGradient><radialGradient id="paint5_radial_530_4656" cx="0" cy="0" r="1" gradientUnits="userSpaceOnUse" gradientTransform="translate(122.002 384.003) scale(19.4986)"><stop stop-color="#fff"/><stop offset=".53" stop-color="#8A8483" stop-opacity=".5"/><stop offset="1"/></radialGradient><radialGradient id="paint6_radial_530_4656" cx="0" cy="0" r="1" gradientUnits="userSpaceOnUse" gradientTransform="translate(122.003 384.003) scale(39.0029)"><stop stop-color="#fff"/><stop offset="1"/></radialGradient><radialGradient id="paint7_radial_530_4656" cx="0" cy="0" r="1" gradientUnits="userSpaceOnUse" gradientTransform="rotate(-45 524.524 44.731) scale(39.0029)"><stop stop-color="#fff"/><stop offset="1"/></radialGradient><radialGradient id="paint8_radial_530_4656" cx="0" cy="0" r="1" gradientUnits="userSpaceOnUse" gradientTransform="matrix(0 24.4982 -12.2482 0 24.5 558.004)"><stop offset=".06" stop-color="#fff"/><stop offset=".14" stop-color="#D3D3D3" stop-opacity=".91"/><stop offset=".25" stop-color="#949494" stop-opacity=".79"/><stop offset=".36" stop-color="#5F5F5F" stop-opacity=".69"/><stop offset=".47" stop-color="#353535" stop-opacity=".61"/><stop offset=".56" stop-color="#181818" stop-opacity=".55"/><stop offset=".64" stop-color="#060606" stop-opacity=".51"/><stop offset=".7" stop-opacity=".5"/></radialGradient><radialGradient id="paint9_radial_530_4656" cx="0" cy="0" r="1" gradientUnits="userSpaceOnUse" gradientTransform="matrix(0 49.0036 -24.5 0 24.5 558.003)"><stop stop-color="#fff"/><stop offset="1"/></radialGradient><radialGradient id="paint10_radial_530_4656" cx="0" cy="0" r="1" gradientUnits="userSpaceOnUse" gradientTransform="matrix(24.1121 0 0 24.1311 475 166.995)"><stop stop-color="#fff"/><stop offset=".06" stop-color="#E5E5E5"/><stop offset=".21" stop-color="#A9A9A9"/><stop offset=".35" stop-color="#757575"/><stop offset=".5" stop-color="#4B4B4B"/><stop offset=".64" stop-color="#2A2A2A"/><stop offset=".77" stop-color="#131313"/><stop offset=".89" stop-color="#040404"/><stop offset="1"/></radialGradient><radialGradient id="paint11_radial_530_4656" cx="0" cy="0" r="1" gradientUnits="userSpaceOnUse" gradientTransform="matrix(109.243 0 0 109.328 475 166.995)"><stop stop-color="#fff"/><stop offset=".06" stop-color="#E5E5E5"/><stop offset=".21" stop-color="#A9A9A9"/><stop offset=".35" stop-color="#757575"/><stop offset=".5" stop-color="#4B4B4B"/><stop offset=".64" stop-color="#2A2A2A"/><stop offset=".77" stop-color="#131313"/><stop offset=".89" stop-color="#040404"/><stop offset="1"/></radialGradient><radialGradient id="paint12_radial_530_4656" cx="0" cy="0" r="1" gradientUnits="userSpaceOnUse" gradientTransform="matrix(22.2722 -22.6257 22.62292 22.26947 569 730.993)"><stop stop-color="#fff"/><stop offset=".53" stop-color="#8A8483" stop-opacity=".5"/><stop offset="1"/></radialGradient><radialGradient id="paint13_radial_530_4656" cx="0" cy="0" r="1" gradientUnits="userSpaceOnUse" gradientTransform="matrix(31.4977 0 0 31.9976 569.005 731.005)"><stop stop-color="#fff"/><stop offset=".53" stop-color="#8A8483" stop-opacity=".5"/><stop offset="1"/></radialGradient><radialGradient id="paint14_radial_530_4656" cx="0" cy="0" r="1" gradientUnits="userSpaceOnUse" gradientTransform="matrix(63.0047 0 0 64.0047 569.004 731.005)"><stop stop-color="#fff"/><stop offset="1"/></radialGradient><radialGradient id="paint15_radial_530_4656" cx="0" cy="0" r="1" gradientUnits="userSpaceOnUse" gradientTransform="matrix(44.55108 -45.25818 45.25255 44.54553 569 730.993)"><stop stop-color="#fff"/><stop offset="1"/></radialGradient><clipPath id="clip0_530_4656"><path fill="#fff" transform="translate(748 231)" d="M0 0h84v167H0z"/></clipPath><clipPath id="clip1_530_4656"><path fill="#fff" transform="translate(83 345)" d="M0 0h78v78H0z"/></clipPath><clipPath id="clip2_530_4656"><path fill="#fff" transform="translate(0 509)" d="M0 0h49v98H0z"/></clipPath><clipPath id="clip3_530_4656"><path fill="#fff" transform="translate(331 111)" d="M0 0h288v112H0z"/></clipPath><clipPath id="clip4_530_4656"><path fill="#fff" transform="translate(506 667)" d="M0 0h126v128H0z"/></clipPath></defs></svg>