<svg width="136" height="34" fill="none" xmlns="http://www.w3.org/2000/svg"><g clip-path="url(#clip0_527_1545)"><path d="M20.997 8.043c-.589.536-1.248 1.024-1.832 1.527-.556.479-1.356 1.005-2.034 1.596.244 1.457.362 3.223.362 5.35 0 7.628-1.46 11.23-5.933 11.23-3.795 0-5.966-2.315-5.966-11.23 0-8.914 2.001-11.23 5.966-11.23.48 0 .928.042 1.342.122.23-.338.457-.68.669-1.033a10.36 10.36 0 00.466-.846c0 .01-.005.015-.01.024a.974.974 0 01.052-.099 13.97 13.97 0 00-2.519-.23C3.833 3.224 0 8.724 0 16.577s3.795 13.227 11.56 13.227c7.765 0 11.527-5.34 11.527-13.288 0-2.968-.522-5.974-2.095-8.468l.005-.005zm10.576 5.186c1.46-1.513 3.357-2.156 5.255-2.156 2.067 0 4.643.61 6.409 2.672 1.153 1.353 2.034 3.443 2.034 6.562 0 7.045-4.271 9.492-8.274 9.492-3.018 0-4.44-1.353-5.222-2.09V33.5h-4.812V11.556h4.51l.105 1.673h-.005zm.202 11.972c.815 1.578 1.969 2.315 3.932 2.315 2.34 0 2.948-.836 3.494-1.672.815-1.287 1.05-3.377 1.05-6.115 0-2.414-.339-3.96-1.05-5.05-.744-1.16-1.592-1.545-3.254-1.545-2.985 0-3.833 1.898-4.172 2.607v9.46zm24.792-.259c0 2.316 1.05 2.574 2.307 2.574 1.154 0 1.865-.385 2.373-.676l.575 1.803c-1.559.935-3.664 1.16-4.85 1.16-2.647 0-5.222-.967-5.222-5.081v-11.23h-3.626v-1.93h3.626V6.478l4.812-.996v6.083h5.053v1.93h-5.053v11.456l.005-.01zm9.432-21.234h4.817v4.664H66V3.708zm0 7.848h4.817v17.76H66v-17.76zM94.69 22.495c-.17 1.287-.34 2.673-1.422 4.152-2.1 2.8-5.967 3.152-7.869 3.152-7.562 0-9.63-5.054-9.63-9.394 0-6.176 4.036-9.332 9.696-9.332 1.761 0 5.665.352 7.83 3.316.952 1.287 1.154 2.508 1.357 3.602H89.67c.103-3.894-2.034-4.857-4.27-4.857-2.61 0-4.545 1.32-4.545 7.271 0 6.787 2.44 7.337 4.61 7.337 3.63 0 4.101-2.926 4.139-5.247h5.085zm22.008-2.057c0 5.632-3.423 9.36-9.394 9.36-6.611 0-9.394-4.47-9.394-9.299 0-4.828 2.712-9.426 9.394-9.426s9.394 4.053 9.394 9.36v.005zm-13.764.033c0 1.963.203 3.988 1.154 5.533.984 1.578 2.204 1.738 3.221 1.738.782 0 2.51 0 3.626-2.476.574-1.254.744-3.57.744-4.988 0-5.246-1.592-7.143-4.342-7.143-3.626 0-4.407 3.377-4.407 7.336h.004zm21.337 2.602c0 2.222.235 4.697 3.729 4.697 3.018 0 3.155-1.705 3.155-2.607 0-1.803-1.323-2.348-2.034-2.64-.236-.098-3.254-1.127-3.795-1.32-3.796-1.286-5.392-2.446-5.392-4.954 0-4.923 5.966-5.181 7.934-5.181 1.253 0 5.222.193 7.087 2.832.744 1.062.848 2.09.951 3.09h-4.85c-.033-1.864-.066-3.926-3.527-3.926-1.252 0-2.778.258-2.778 2.447 0 .803.306 1.386 1.017 1.804.542.324 4.238 1.352 4.982 1.639 2.307.935 5.255 2.09 5.255 5.631 0 1.738-.574 2.701-1.29 3.316-1.695 1.513-4.61 1.898-6.545 1.898-2.816 0-4.916-.742-6.207-1.578-2.34-1.48-2.476-3.861-2.575-5.148h4.883z" fill="#fff"/><path d="M17.286.64L27.452.5 9.678 14.37c2.533-4.575 5.071-9.154 7.61-13.73z" fill="#398DC6"/></g><defs><clipPath id="clip0_527_1545"><path fill="#fff" transform="translate(0 .5)" d="M0 0h136v33H0z"/></clipPath></defs></svg>