<svg width="150" height="150" fill="none" xmlns="http://www.w3.org/2000/svg"><path d="M130.74 67.593a.73.73 0 01.204.17.399.399 0 01.07.213c.006.09-.033.192-.117.304a3.663 3.663 0 00-.269.41 2.871 2.871 0 00-.258.587c-.077.224-.104.498-.083.823.022.33.092.62.21.868.118.249.27.455.457.62.182.164.393.284.633.359.24.075.493.104.759.086.267-.017.489-.096.666-.236.173-.14.319-.318.438-.534.114-.216.213-.458.297-.725.084-.273.173-.551.266-.835a7.34 7.34 0 01.315-.83c.115-.275.265-.523.448-.744.183-.22.412-.403.685-.55.269-.145.602-.232 1.001-.258a4.243 4.243 0 011.576.185c.497.155.94.396 1.33.723.39.327.708.734.954 1.22s.389 1.04.43 1.663c.023.34.007.67-.047.99-.049.313-.128.61-.238.889-.116.28-.256.54-.422.781a3.94 3.94 0 01-.583.64l-.82-.524a.846.846 0 01-.164-.173.428.428 0 01-.079-.22.356.356 0 01.074-.22 2.02 2.02 0 01.191-.27c.079-.101.162-.214.25-.337a2.6 2.6 0 00.425-.974c.04-.206.052-.439.034-.7a2.606 2.606 0 00-.221-.931c-.13-.275-.3-.504-.51-.688a1.932 1.932 0 00-.74-.4 2.545 2.545 0 00-.929-.1c-.287.019-.52.098-.697.238-.179.135-.325.31-.439.526-.119.217-.218.46-.297.733l-.242.826c-.083.278-.18.554-.29.829a2.827 2.827 0 01-.441.734 2.333 2.333 0 01-.701.551c-.285.142-.64.227-1.066.255a3.732 3.732 0 01-1.382-.166 3.549 3.549 0 01-1.215-.674 3.588 3.588 0 01-.876-1.129 3.966 3.966 0 01-.407-1.56 3.629 3.629 0 01.246-1.636c.197-.5.479-.914.848-1.243l.726.434zm6.702-8.439c.351.208.65.415.898.621.248.207.456.424.627.65.164.224.296.464.396.721.099.252.179.536.242.85.091.46.094.886.009 1.278a2.538 2.538 0 01-.488 1.035c-.24.298-.548.55-.926.755a4.586 4.586 0 01-1.305.455 5.63 5.63 0 01-2.522-.053 5.002 5.002 0 01-1.129-.429 4.281 4.281 0 01-.957-.666 3.646 3.646 0 01-1.13-1.994c-.105-.529-.098-.99.019-1.382.117-.399.329-.77.635-1.113l.676.363c.05.033.096.073.138.12.041.04.067.09.078.147a.344.344 0 01-.05.238 3.172 3.172 0 00-.15.315 1.894 1.894 0 00-.129.458c-.03.175-.02.39.031.647.068.345.227.653.477.924.244.273.554.491.93.656.375.165.801.27 1.278.317.477.047.979.017 1.508-.088.314-.062.591-.155.833-.28.242-.123.438-.271.589-.443a1.51 1.51 0 00.313-.6 1.75 1.75 0 00-.001-.742 2.268 2.268 0 00-.189-.583 2.28 2.28 0 00-.564-.744l-.283-.237a2.72 2.72 0 01-.22-.201.42.42 0 01-.114-.206.38.38 0 01.085-.31l.395-.479zm-5.412-2.462a6.55 6.55 0 01-1.298-.311 3.322 3.322 0 01-.956-.503 1.85 1.85 0 01-.569-.684 1.535 1.535 0 01-.139-.863l1.519-.186c-.057.74.213 1.286.812 1.64.598.353 1.543.493 2.835.42l3.651-.685.461 1.457-8.062 1.517-.236-.747c-.052-.163-.05-.3.004-.413.054-.112.167-.195.34-.25l1.638-.392zm2.096-8.142a1.794 1.794 0 00-.694-.803 2.673 2.673 0 00-1.08-.373 4.216 4.216 0 00-1.302.032 5.7 5.7 0 00-1.371.423c-.666.3-1.105.65-1.317 1.049-.213.4-.209.842.009 1.329.156.345.39.614.705.806a2.7 2.7 0 001.073.377 4.22 4.22 0 001.29-.037c.462-.078.919-.22 1.371-.423.657-.295 1.096-.645 1.318-1.048.217-.402.216-.846-.002-1.333zm1.168-.368c.181.404.281.806.297 1.208a2.76 2.76 0 01-.208 1.155 3.143 3.143 0 01-.704 1.01 4.29 4.29 0 01-1.222.795 5.753 5.753 0 01-1.897.502 5.187 5.187 0 01-1.808-.16 4.165 4.165 0 01-1.515-.776 3.572 3.572 0 01-1.034-1.342 3.176 3.176 0 01-.29-1.211 2.602 2.602 0 01.205-1.145c.151-.366.388-.704.711-1.013a4.07 4.07 0 011.203-.795 5.684 5.684 0 011.901-.495 5.1 5.1 0 011.809.16 4.15 4.15 0 011.522.772c.446.355.789.8 1.03 1.335zm-2.705-5.258l-10.947 4.652-.767-1.331 10.947-4.652.767 1.33zm-2.086-3.533l-10.635 5.327-.848-1.28 10.635-5.327.848 1.28zm-12.743-3.909a1.707 1.707 0 01.113-2.396 1.711 1.711 0 012.408.103 1.714 1.714 0 01-.115 2.418 1.71 1.71 0 01-2.406-.125zm-12.09-8.05a.712.712 0 01.263-.043.393.393 0 01.206.085c.073.054.125.15.155.286.027.133.072.29.136.472.06.178.152.37.277.578.121.203.311.403.571.598.265.198.53.334.796.406.265.073.521.092.768.056.243-.03.471-.113.684-.246.214-.133.4-.307.56-.52.16-.213.245-.433.255-.66a1.802 1.802 0 00-.12-.68 4.377 4.377 0 00-.357-.697c-.152-.24-.306-.49-.461-.745a7.36 7.36 0 01-.425-.78 2.913 2.913 0 01-.272-.824 2.273 2.273 0 01.028-.878c.064-.299.216-.608.456-.928.33-.44.719-.798 1.167-1.075.44-.276.912-.456 1.414-.54a3.811 3.811 0 011.547.07c.53.131 1.044.383 1.543.758.273.204.513.431.72.68a4.2 4.2 0 01.52.76c.137.27.244.546.318.828.067.284.103.57.106.86l-.931.281a.848.848 0 01-.239.012.417.417 0 01-.217-.084.348.348 0 01-.12-.2 1.96 1.96 0 01-.08-.32 11.71 11.71 0 00-.093-.41 2.643 2.643 0 00-.463-.957 2.738 2.738 0 00-.508-.48 2.621 2.621 0 00-.852-.44 1.955 1.955 0 00-1.64.24 2.56 2.56 0 00-.68.64c-.172.231-.264.46-.273.686-.014.223.024.448.113.675.087.231.208.465.364.702l.468.722c.157.244.304.497.44.76.133.26.223.53.271.813a2.32 2.32 0 01-.039.89c-.077.31-.244.634-.5.975-.285.38-.627.694-1.026.941-.406.249-.84.41-1.302.483-.462.074-.938.05-1.428-.07a3.954 3.954 0 01-1.449-.707 3.629 3.629 0 01-1.082-1.251 3.216 3.216 0 01-.39-1.453l.801-.269zm-2.063-10.572a6.861 6.861 0 011.056-.279c.318-.054.618-.072.902-.053.276.02.544.076.805.167.256.089.523.211.802.368.41.23.735.504.978.824.238.317.394.665.469 1.043.071.376.061.774-.028 1.195a4.59 4.59 0 01-.502 1.287 6.029 6.029 0 01-.745 1.05 5.63 5.63 0 01-.936.832c-.336.24-.689.433-1.059.58-.373.152-.749.25-1.128.294a3.64 3.64 0 01-2.25-.438c-.47-.263-.816-.568-1.038-.913a2.883 2.883 0 01-.433-1.206l.715-.277a.758.758 0 01.181-.027.283.283 0 01.163.036.347.347 0 01.148.193c.034.093.081.199.143.319.058.125.146.256.264.396.112.136.283.269.511.397.307.172.644.252 1.013.238a2.67 2.67 0 001.102-.28 4.189 4.189 0 001.072-.766 5.14 5.14 0 00.913-1.202c.157-.28.267-.551.329-.816a1.95 1.95 0 00.046-.735 1.509 1.509 0 00-.252-.628 1.76 1.76 0 00-.565-.482 2.315 2.315 0 00-1.497-.29l-.365.06c-.108.02-.207.032-.296.037a.41.41 0 01-.23-.047.381.381 0 01-.181-.266l-.107-.611zm-5.31 2.548c-.37.323-.73.584-1.082.782a3.326 3.326 0 01-1.005.397 1.854 1.854 0 01-.89-.015 1.537 1.537 0 01-.743-.457l.848-1.273c.524.525 1.115.676 1.773.453.658-.224 1.38-.849 2.167-1.876l1.861-3.215 1.405.6-4.105 7.103-.721-.308c-.157-.067-.26-.158-.31-.272-.05-.114-.04-.255.032-.421l.77-1.498zM93.49 12.52a1.792 1.792 0 00-1.06.003 2.67 2.67 0 00-.988.575 4.23 4.23 0 00-.823 1.008 5.66 5.66 0 00-.573 1.316c-.207.7-.228 1.262-.063 1.683.164.421.502.708 1.014.859.363.107.72.104 1.07-.01.35-.107.678-.297.986-.567a4.24 4.24 0 00.813-1.003c.241-.401.432-.84.573-1.315.204-.69.225-1.252.063-1.683-.163-.427-.5-.716-1.012-.867zm.483-1.126c.424.125.795.313 1.11.562.314.254.561.558.74.91.175.353.277.75.307 1.193a4.28 4.28 0 01-.193 1.444 5.76 5.76 0 01-.856 1.766 5.194 5.194 0 01-1.3 1.267 4.166 4.166 0 01-1.575.644 3.575 3.575 0 01-1.692-.09 3.167 3.167 0 01-1.108-.57 2.613 2.613 0 01-.735-.901 2.972 2.972 0 01-.304-1.2 4.1 4.1 0 01.18-1.431 5.676 5.676 0 01.864-1.764c.376-.517.81-.94 1.3-1.267a4.151 4.151 0 011.578-.652 3.524 3.524 0 011.684.089zm-5.749-1.368l-3.62 11.33-1.508-.287 3.619-11.33 1.508.287zm-4.005-.709L81.3 20.848l-1.524-.194 2.918-11.532 1.524.195zm-11.516 7.125a1.707 1.707 0 01-1.747-1.643 1.71 1.71 0 011.642-1.763 1.714 1.714 0 011.764 1.658 1.71 1.71 0 01-1.659 1.748zm-13.981 3.984a.708.708 0 01.137-.228.394.394 0 01.199-.102c.088-.02.194.002.318.067.12.066.269.133.448.202.175.07.381.124.62.163.233.04.508.024.825-.047.323-.074.598-.188.825-.343.227-.156.407-.339.54-.55a1.68 1.68 0 00.256-.68 2.068 2.068 0 00-.034-.764 1.174 1.174 0 00-.337-.62 1.787 1.787 0 00-.596-.35 4.33 4.33 0 00-.763-.18c-.282-.04-.571-.083-.866-.131a7.343 7.343 0 01-.87-.18 2.933 2.933 0 01-.804-.327 2.269 2.269 0 01-.65-.59c-.186-.243-.324-.56-.412-.95a4.243 4.243 0 01-.064-1.585c.075-.514.243-.99.505-1.426a3.813 3.813 0 011.056-1.134 4.272 4.272 0 011.575-.685c.333-.075.662-.111.985-.108.317 0 .622.031.916.096.295.07.574.168.837.294.26.133.501.291.724.476l-.389.892a.848.848 0 01-.146.189.42.42 0 01-.204.112.354.354 0 01-.23-.038 2.005 2.005 0 01-.296-.146 10.294 10.294 0 00-.372-.195 2.612 2.612 0 00-1.029-.267 2.743 2.743 0 00-.696.075c-.343.078-.638.2-.885.365a2.102 2.102 0 00-.6.612 1.93 1.93 0 00-.28.793c-.042.294-.027.605.048.933.063.28.178.498.344.652.161.155.357.271.588.35.233.084.49.144.77.178l.854.11c.288.04.576.092.864.158.283.067.548.174.795.32.247.152.465.354.654.606.184.26.324.597.418 1.013.105.463.122.927.053 1.39a3.545 3.545 0 01-.476 1.306c-.243.4-.569.747-.978 1.042a3.958 3.958 0 01-1.477.646 3.63 3.63 0 01-1.654.014 3.215 3.215 0 01-1.36-.643l.314-.785zm-9.371-5.28c.15-.38.307-.708.471-.985.165-.278.346-.518.543-.722a3.12 3.12 0 01.649-.505c.233-.138.5-.263.8-.374.44-.163.86-.234 1.26-.212.397.024.763.13 1.1.318.332.19.63.455.892.795.263.34.482.746.656 1.216.152.41.258.826.318 1.247.056.429.066.846.029 1.252a5.02 5.02 0 01-.244 1.183 4.288 4.288 0 01-.507 1.05 3.639 3.639 0 01-1.79 1.431c-.504.188-.96.255-1.367.2a2.882 2.882 0 01-1.2-.45l.252-.725a.742.742 0 01.096-.155.282.282 0 01.133-.1.345.345 0 01.244.011c.092.034.203.067.334.098.133.036.29.054.473.055a1.79 1.79 0 00.634-.133c.33-.122.609-.328.837-.617a2.67 2.67 0 00.5-1.022 4.18 4.18 0 00.11-1.312 5.154 5.154 0 00-.325-1.475c-.111-.3-.247-.56-.408-.779a1.973 1.973 0 00-.531-.511 1.509 1.509 0 00-.643-.214 1.754 1.754 0 00-.732.118 2.32 2.32 0 00-1.191.954l-.19.318c-.055.094-.11.177-.163.248a.412.412 0 01-.185.145.38.38 0 01-.32-.034l-.535-.314zM47.86 20.84c.007.49-.028.934-.104 1.33-.074.4-.19.742-.348 1.023-.155.287-.35.51-.587.67a1.537 1.537 0 01-.83.27l-.421-1.47c.739-.06 1.236-.412 1.492-1.058.255-.647.246-1.602-.028-2.866l-1.248-3.5 1.367-.682 2.76 7.725-.701.35c-.153.076-.289.097-.408.06-.12-.035-.22-.134-.3-.296l-.644-1.557zm-8.34-.813a1.791 1.791 0 00-.684.81 2.67 2.67 0 00-.203 1.125c.006.41.084.836.233 1.28.15.444.36.874.63 1.29.4.611.813.991 1.24 1.14.428.147.865.075 1.311-.216.318-.206.547-.48.688-.82a2.71 2.71 0 00.207-1.119 4.235 4.235 0 00-.236-1.27 5.66 5.66 0 00-.63-1.288c-.393-.603-.806-.983-1.24-1.14-.43-.153-.868-.083-1.315.208zm-.543-1.097a3.271 3.271 0 011.148-.481 2.776 2.776 0 011.174.028c.38.095.749.275 1.106.54.355.27.68.632.974 1.083a5.76 5.76 0 01.789 1.797c.149.629.189 1.233.12 1.812a4.17 4.17 0 01-.53 1.616 3.575 3.575 0 01-1.167 1.229c-.371.241-.755.4-1.152.474-.395.078-.782.07-1.163-.026a2.971 2.971 0 01-1.11-.546 4.07 4.07 0 01-.972-1.066 5.678 5.678 0 01-.783-1.801 5.1 5.1 0 01-.12-1.812 4.15 4.15 0 01.527-1.623 3.525 3.525 0 011.16-1.224zm-4.753 3.474l6.274 10.106-1.198.961-6.274-10.105 1.198-.962zm-3.142 2.588l6.886 9.698-1.136 1.034-6.887-9.698 1.137-1.034zm-1.895 13.18a1.707 1.707 0 01-2.385.252 1.71 1.71 0 01-.265-2.395 1.714 1.714 0 012.408-.255 1.71 1.71 0 01.242 2.398zM23.08 51.408a.709.709 0 01-.084-.252.395.395 0 01.052-.218c.042-.08.128-.146.258-.198a3.5 3.5 0 00.972-.573c.182-.15.349-.37.5-.658.155-.292.247-.575.277-.85.03-.273.008-.529-.065-.766a1.679 1.679 0 00-.351-.638 2.066 2.066 0 00-.602-.471 1.173 1.173 0 00-.69-.148 1.792 1.792 0 00-.654.226c-.21.124-.42.278-.632.462-.215.188-.436.379-.664.572a7.344 7.344 0 01-.703.543c-.242.173-.5.306-.77.398a2.27 2.27 0 01-.873.11c-.305-.017-.634-.118-.988-.305a4.243 4.243 0 01-1.245-.983 3.81 3.81 0 01-.755-1.312 3.814 3.814 0 01-.174-1.539 4.27 4.27 0 01.505-1.642c.16-.302.346-.574.558-.818.206-.241.429-.452.67-.633.244-.178.5-.326.768-.445a4 4 0 01.831-.239l.425.875a.847.847 0 01.049.234.419.419 0 01-.048.228.354.354 0 01-.179.15 2.008 2.008 0 01-.303.13c-.12.044-.25.096-.39.155a2.619 2.619 0 00-.872.607 2.75 2.75 0 00-.396.579 2.614 2.614 0 00-.3.91c-.032.301-.007.586.075.852.082.267.223.51.42.729.196.224.442.414.74.571.254.134.494.189.719.163a1.58 1.58 0 00.649-.219 3.53 3.53 0 00.636-.469l.64-.576c.216-.194.443-.378.68-.554.236-.172.49-.303.76-.395.277-.09.573-.124.887-.102.317.028.664.142 1.041.34.42.223.783.51 1.09.866.31.362.537.766.682 1.21.146.445.197.918.155 1.42a3.957 3.957 0 01-.47 1.543c-.28.529-.634.95-1.066 1.265a3.22 3.22 0 01-1.373.614l-.392-.75zm-10.104 3.624a6.851 6.851 0 01-.44-1 3.886 3.886 0 01-.193-.882c-.023-.276-.01-.55.04-.821.048-.267.127-.55.238-.85.163-.44.384-.805.662-1.094a2.53 2.53 0 01.958-.626c.36-.128.755-.181 1.184-.158.43.023.88.121 1.35.296.41.152.794.343 1.153.572.361.237.684.502.968.795.289.294.534.613.737.956.208.344.363.7.466 1.068a3.64 3.64 0 01-.082 2.29c-.187.506-.434.895-.74 1.168a2.88 2.88 0 01-1.125.616l-.385-.664a.746.746 0 01-.055-.174.282.282 0 01.01-.166.346.346 0 01.169-.177c.086-.048.183-.111.292-.19.114-.077.23-.185.35-.322a1.8 1.8 0 00.313-.567 1.9 1.9 0 00.078-1.038 2.668 2.668 0 00-.449-1.045 4.176 4.176 0 00-.923-.94 5.148 5.148 0 00-1.33-.715 3.173 3.173 0 00-.857-.198 1.972 1.972 0 00-.733.069c-.22.072-.414.188-.582.347a1.757 1.757 0 00-.388.633 2.321 2.321 0 00-.053 1.524l.117.351c.035.104.063.2.082.286a.41.41 0 01-.01.235.38.38 0 01-.236.22l-.586.2zm3.333 4.881c.377.315.692.63.942.946.256.317.44.627.55.93.117.303.159.597.126.88-.028.29-.14.56-.334.807l-1.39-.637c.436-.6.492-1.207.167-1.822-.324-.614-1.055-1.23-2.193-1.845l-3.468-1.331.371-1.482 7.66 2.935-.19.76c-.042.166-.115.282-.22.35-.104.067-.245.078-.42.034l-1.601-.525zm-6.044 5.75c-.049.37.007.72.168 1.047.166.334.407.63.723.886.315.262.69.481 1.124.657.434.175.897.296 1.389.36.724.096 1.282.03 1.672-.199.39-.228.62-.607.69-1.136a1.772 1.772 0 00-.175-1.056 2.704 2.704 0 00-.715-.884 4.24 4.24 0 00-1.117-.648 5.663 5.663 0 00-1.389-.36c-.713-.094-1.27-.028-1.672.199-.396.228-.628.606-.698 1.134zm-1.187-.301c.058-.44.185-.834.382-1.184.202-.35.464-.641.785-.873.32-.227.697-.39 1.13-.49a4.298 4.298 0 011.456-.033c.682.09 1.308.28 1.878.57a5.192 5.192 0 011.454 1.087c.4.435.694.92.882 1.456.192.542.25 1.103.173 1.685a3.167 3.167 0 01-.39 1.183c-.197.35-.455.64-.776.866-.32.232-.7.395-1.137.488a4.07 4.07 0 01-1.442.044 5.677 5.677 0 01-1.877-.578 5.098 5.098 0 01-1.454-1.087 4.15 4.15 0 01-.89-1.457 3.525 3.525 0 01-.174-1.677zm-.468 5.935l11.758 1.796-.048 1.535-11.758-1.796.047-1.535zm-.084 4.141l11.846 1.066.048 1.535-11.847-1.066-.047-1.535zm8.773 10.028a1.707 1.707 0 01-1.356 1.979 1.71 1.71 0 01-1.994-1.353 1.714 1.714 0 011.368-1.997 1.71 1.71 0 011.982 1.371zm6.159 13.392a.71.71 0 01-.247-.1.395.395 0 01-.132-.18c-.034-.083-.029-.192.016-.324.046-.128.09-.286.129-.474.041-.184.062-.396.063-.638.003-.236-.056-.506-.177-.808a2.376 2.376 0 00-.47-.76 1.878 1.878 0 00-.627-.447 1.679 1.679 0 00-.713-.144 2.067 2.067 0 00-.748.153c-.248.1-.434.243-.56.432-.12.186-.204.4-.25.643-.042.24-.06.501-.058.782.006.285.008.577.007.876.004.297-.01.593-.04.887a2.95 2.95 0 01-.196.846 2.268 2.268 0 01-.48.735c-.21.222-.5.408-.872.557a4.243 4.243 0 01-1.555.313 3.813 3.813 0 01-1.489-.273 3.816 3.816 0 01-1.286-.864 4.266 4.266 0 01-.925-1.447 4.25 4.25 0 01-.263-.955 4.199 4.199 0 01-.05-.92 4.18 4.18 0 01.159-.873 3.9 3.9 0 01.356-.79l.942.243a.847.847 0 01.21.114.42.42 0 01.142.184.354.354 0 01-.001.234 2 2 0 01-.098.315c-.043.12-.088.253-.133.398a2.618 2.618 0 00-.101 1.058c.025.208.087.433.184.676.131.326.298.599.5.816.21.22.442.386.699.496.256.11.532.16.827.15.297-.004.602-.069.914-.194.267-.107.463-.255.589-.443a1.56 1.56 0 00.253-.636 3.53 3.53 0 00.055-.789l-.026-.86a9.637 9.637 0 01.018-.878c.022-.29.085-.568.19-.835.112-.268.277-.516.496-.742.227-.223.538-.414.934-.572a3.73 3.73 0 011.365-.272c.477-.002.931.086 1.364.263a3.57 3.57 0 011.183.801c.363.36.654.813.872 1.357a3.63 3.63 0 01.275 1.63 3.217 3.217 0 01-.42 1.445l-.825-.186zm-3.813 9.986a6.963 6.963 0 01-1.047-.312 3.875 3.875 0 01-.797-.424 3.106 3.106 0 01-.6-.562 4.975 4.975 0 01-.494-.732 3.127 3.127 0 01-.405-1.213c-.038-.395.01-.773.142-1.135a3.03 3.03 0 01.647-1.005 4.565 4.565 0 011.1-.837 5.63 5.63 0 012.415-.732c.41-.029.813-.01 1.205.057.397.064.77.177 1.116.337a3.634 3.634 0 011.693 1.545c.264.47.4.91.41 1.32.013.415-.073.833-.258 1.255l-.755-.136a.72.72 0 01-.168-.07.282.282 0 01-.12-.116.347.347 0 01-.026-.243c.019-.096.034-.211.044-.346a1.845 1.845 0 00-.02-.475 1.794 1.794 0 00-.229-.605 1.886 1.886 0 00-.74-.731 2.667 2.667 0 00-1.087-.335 4.17 4.17 0 00-1.314.095 5.152 5.152 0 00-1.406.551c-.28.157-.515.331-.706.524a1.98 1.98 0 00-.422.604 1.511 1.511 0 00-.112.668c.021.233.098.469.231.706a2.321 2.321 0 001.127 1.027c.127.052.241.098.344.138.102.041.192.082.27.123a.414.414 0 01.173.16.38.38 0 01.015.322l-.226.577zm5.78.5a6.493 6.493 0 011.33-.102 3.32 3.32 0 011.065.185c.307.109.557.268.751.477.202.21.334.47.397.779l-1.389.643c-.172-.722-.597-1.159-1.275-1.312-.678-.153-1.62.004-2.827.469l-3.266 1.771-.885-1.245 7.208-3.916.454.639c.099.139.14.27.123.393-.017.124-.1.238-.248.343l-1.438.876zm.592 8.518c.25.277.553.46.907.55.361.09.742.098 1.143.024.403-.07.813-.213 1.228-.43a5.69 5.69 0 001.175-.824c.542-.49.853-.957.932-1.403.08-.445-.06-.865-.417-1.261a1.77 1.77 0 00-.918-.551c-.354-.09-.733-.1-1.137-.03a4.247 4.247 0 00-1.217.431 5.688 5.688 0 00-1.175.824c-.534.483-.845.95-.932 1.403-.084.448.054.871.411 1.267zm-.999.708a3.275 3.275 0 01-.654-1.059 2.777 2.777 0 01-.156-1.163 3.15 3.15 0 01.36-1.177c.213-.393.519-.77.919-1.131a5.753 5.753 0 011.651-1.061 5.192 5.192 0 011.77-.402c.59-.023 1.15.068 1.68.272a3.57 3.57 0 011.396.961c.297.328.513.683.648 1.064.14.377.192.761.157 1.152a2.968 2.968 0 01-.366 1.182 4.068 4.068 0 01-.902 1.126 5.686 5.686 0 01-1.656 1.055c-.59.245-1.18.379-1.771.402a4.143 4.143 0 01-1.686-.267 3.53 3.53 0 01-1.39-.954zm4.077 4.081l9.005-7.771 1.136 1.034-9.005 7.771-1.136-1.034zm3.083 2.753l8.507-8.313 1.198.962-8.507 8.312-1.198-.961zm13.336-.14a1.708 1.708 0 01.623 2.317 1.71 1.71 0 01-2.324.637 1.714 1.714 0 01-.63-2.338 1.711 1.711 0 012.33-.616zm14.014 3.981a.691.691 0 01-.236.122.393.393 0 01-.222-.016c-.086-.03-.165-.104-.237-.225a3.55 3.55 0 00-.275-.406 2.95 2.95 0 00-.442-.464 2.145 2.145 0 00-.728-.392 2.38 2.38 0 00-.882-.141 1.891 1.891 0 00-.748.185 1.667 1.667 0 00-.575.446 2.064 2.064 0 00-.371.668 1.17 1.17 0 00-.038.705c.062.213.17.416.324.61.156.188.34.372.555.553.22.182.443.371.67.566.227.191.443.394.645.609.21.213.38.446.514.7.133.254.214.535.244.844.032.304-.017.645-.146 1.024a4.248 4.248 0 01-.777 1.383 3.8 3.8 0 01-1.178.95c-.452.235-.95.372-1.493.412a4.275 4.275 0 01-1.7-.242 4.253 4.253 0 01-.896-.424 4.215 4.215 0 01-.73-.562 4.182 4.182 0 01-.559-.689 3.907 3.907 0 01-.366-.785l.798-.556a.857.857 0 01.224-.084.418.418 0 01.232.012.35.35 0 01.176.153c.059.076.117.169.175.279.064.112.135.232.215.361a2.655 2.655 0 00.736.767c.175.116.386.216.633.3.333.114.648.165.945.154a2.1 2.1 0 00.831-.207c.25-.123.469-.299.654-.529.19-.228.34-.501.449-.819.093-.273.109-.518.048-.736a1.568 1.568 0 00-.317-.607 3.548 3.548 0 00-.563-.555c-.216-.176-.439-.356-.669-.541a9.799 9.799 0 01-.653-.587 2.802 2.802 0 01-.509-.689 2.345 2.345 0 01-.24-.859c-.02-.318.038-.678.175-1.082.154-.449.382-.853.685-1.212.31-.362.672-.65 1.089-.863a3.587 3.587 0 011.379-.374 3.95 3.95 0 011.597.224 3.633 3.633 0 011.416.855c.385.374.658.794.82 1.26l-.679.504zm4.871 9.368a6.86 6.86 0 01-.92.589 3.855 3.855 0 01-.841.327 3.087 3.087 0 01-.818.088 5.04 5.04 0 01-.877-.104 3.133 3.133 0 01-1.183-.485 2.547 2.547 0 01-.767-.849 3.034 3.034 0 01-.339-1.146 4.585 4.585 0 01.083-1.379c.087-.429.217-.838.388-1.228a5.64 5.64 0 01.635-1.079c.247-.331.524-.623.83-.877a4.31 4.31 0 01.984-.625 3.646 3.646 0 012.276-.273c.528.107.95.29 1.268.551.323.261.583.599.782 1.015l-.596.483a.686.686 0 01-.163.081.286.286 0 01-.167.016.345.345 0 01-.2-.139 2.976 2.976 0 00-.233-.259 1.811 1.811 0 00-.373-.296 1.79 1.79 0 00-.608-.221 1.894 1.894 0 00-1.037.083 2.672 2.672 0 00-.964.605 4.18 4.18 0 00-.785 1.057 5.15 5.15 0 00-.501 1.425 3.173 3.173 0 00-.064.877c.022.271.082.509.182.714.105.206.25.38.433.521.19.136.419.231.685.285a2.331 2.331 0 001.108-.028 2.07 2.07 0 00.407-.155l.328-.17a2.9 2.9 0 01.27-.125.412.412 0 01.234-.026.38.38 0 01.254.199l.289.548zm4.676-3.986a6.56 6.56 0 01.786-1.079c.273-.302.551-.532.833-.689.282-.162.565-.249.85-.261.29-.017.574.051.85.204l-.413 1.473c-.66-.337-1.269-.298-1.825.119-.557.416-1.05 1.234-1.48 2.454l-.773 3.634-1.522-.135 1.702-8.025.78.069c.17.015.297.069.38.163.083.093.116.229.1.41l-.268 1.663zm6.7 5.078a1.79 1.79 0 001.007-.332c.304-.216.558-.5.762-.853a4.2 4.2 0 00.471-1.213 5.66 5.66 0 00.138-1.428c-.02-.73-.173-1.27-.46-1.62-.287-.35-.697-.518-1.23-.503a1.77 1.77 0 00-1.015.339 2.711 2.711 0 00-.762.845 4.243 4.243 0 00-.464 1.205 5.69 5.69 0 00-.137 1.429c.02.719.173 1.259.46 1.62.287.355.697.525 1.23.511zm-.111 1.219a3.27 3.27 0 01-1.23-.191 2.776 2.776 0 01-.985-.637 3.15 3.15 0 01-.66-1.039 4.298 4.298 0 01-.263-1.433 5.758 5.758 0 01.267-1.944c.202-.614.484-1.15.845-1.608.366-.463.8-.83 1.299-1.099a3.577 3.577 0 011.637-.437 3.18 3.18 0 011.23.199c.377.139.703.349.977.63.28.281.5.63.66 1.047.166.411.256.884.27 1.417a5.679 5.679 0 01-.275 1.944 5.094 5.094 0 01-.845 1.607 4.14 4.14 0 01-1.298 1.108 3.53 3.53 0 01-1.629.436zm6.006-.465l-.076-11.894 1.524-.195.077 11.894-1.524.195zm3.988-.545l-.805-11.867 1.508-.288.806 11.867-1.509.288zm8.582-10.255a1.707 1.707 0 012.169 1.025 1.71 1.71 0 01-1.02 2.183 1.714 1.714 0 01-2.189-1.034 1.71 1.71 0 011.04-2.174zm12.095-8.096a.71.71 0 01-.06.259.392.392 0 01-.157.159c-.078.046-.185.058-.324.035a3.566 3.566 0 00-.488-.054c-.187-.013-.4 0-.639.036-.235.034-.491.135-.771.301-.284.169-.51.363-.678.581a1.883 1.883 0 00-.344.689 1.664 1.664 0 00-.032.727c.042.248.131.487.268.716.136.229.307.391.513.486.202.09.427.139.674.147.244.004.505-.018.781-.064.281-.05.569-.097.865-.143.293-.05.587-.083.882-.098a2.97 2.97 0 01.866.062c.28.063.547.183.801.361.252.173.481.431.685.774.281.472.465.968.551 1.488a3.811 3.811 0 01-.039 1.513 3.813 3.813 0 01-.653 1.404c-.322.44-.751.82-1.287 1.139a4.243 4.243 0 01-.902.408 4.305 4.305 0 01-.901.192 4.235 4.235 0 01-.888-.021 3.9 3.9 0 01-.834-.229l.093-.968a.876.876 0 01.08-.225.423.423 0 01.16-.17.36.36 0 01.231-.035c.096.005.205.021.326.048.126.024.264.047.414.07a2.636 2.636 0 001.061-.064c.201-.058.414-.154.639-.287.302-.181.545-.387.729-.621.186-.241.313-.497.381-.767.069-.271.075-.551.021-.841a2.551 2.551 0 00-.334-.872c-.147-.248-.324-.419-.529-.514a1.564 1.564 0 00-.668-.151 3.481 3.481 0 00-.788.068l-.845.16a9.945 9.945 0 01-.87.118c-.29.023-.575.004-.855-.059a2.36 2.36 0 01-.81-.375c-.255-.189-.492-.467-.71-.833a3.752 3.752 0 01-.481-1.307 3.54 3.54 0 01.049-1.388 3.57 3.57 0 01.607-1.293c.3-.415.702-.772 1.206-1.072a3.626 3.626 0 011.568-.525 3.218 3.218 0 011.492.192l-.056.843zm10.353 2.317a6.828 6.828 0 01-.147 1.082 3.854 3.854 0 01-.297.853 3.092 3.092 0 01-.464.679c-.18.203-.396.403-.647.6-.37.29-.748.486-1.137.587a2.54 2.54 0 01-1.143.033 3.033 3.033 0 01-1.093-.485 4.562 4.562 0 01-.995-.958 5.938 5.938 0 01-.683-1.091 5.56 5.56 0 01-.41-1.183 5.031 5.031 0 01-.129-1.201c.003-.402.057-.787.162-1.154a3.651 3.651 0 011.267-1.91c.424-.332.838-.535 1.242-.608a2.887 2.887 0 011.28.063l-.019.767a.74.74 0 01-.044.177.282.282 0 01-.096.137.348.348 0 01-.236.063 3.075 3.075 0 00-.348.009 1.835 1.835 0 00-.467.092c-.17.052-.357.158-.563.319-.277.218-.48.499-.609.844a2.673 2.673 0 00-.164 1.126c.023.409.121.837.295 1.283.174.447.428.882.76 1.306.198.251.407.457.627.616.22.16.44.268.661.325.226.054.451.056.677.008.228-.056.448-.168.662-.336a2.364 2.364 0 00.697-.862c.066-.14.115-.277.146-.41l.083-.36c.025-.107.051-.203.08-.287a.408.408 0 01.132-.195.379.379 0 01.316-.064l.604.135zm-.138-6.016a6.586 6.586 0 01-.309-1.299 3.322 3.322 0 01.018-1.08c.06-.32.178-.592.354-.816a1.54 1.54 0 01.707-.513l.852 1.271c-.686.283-1.052.771-1.097 1.464-.045.694.256 1.6.904 2.72l2.259 2.949-1.092 1.069-4.992-6.509.56-.549c.122-.119.245-.18.37-.182.124-.003.25.061.377.19l1.089 1.285zm8.083-1.628a1.79 1.79 0 00.406-.979 2.675 2.675 0 00-.15-1.134 4.23 4.23 0 00-.612-1.148 5.638 5.638 0 00-.993-1.036c-.567-.462-1.076-.698-1.528-.708-.452-.011-.847.19-1.184.604a1.765 1.765 0 00-.404.991c-.035.364.013.74.143 1.128.13.381.334.76.611 1.137.277.378.608.723.993 1.036.558.455 1.068.691 1.528.709.456.014.853-.186 1.19-.6zm.852.88a3.28 3.28 0 01-.947.807 2.776 2.776 0 01-1.126.332 3.178 3.178 0 01-1.218-.177 4.322 4.322 0 01-1.258-.736 5.787 5.787 0 01-1.299-1.471 5.186 5.186 0 01-.667-1.689 4.144 4.144 0 01.014-1.701c.12-.563.366-1.071.737-1.526a3.17 3.17 0 01.952-.802 2.622 2.622 0 011.115-.33 2.96 2.96 0 011.224.182c.421.143.838.382 1.251.719.529.431.961.924 1.294 1.477.332.546.555 1.109.667 1.689a4.159 4.159 0 01-.007 1.707 3.539 3.539 0 01-.732 1.519zm3.656-4.992l-9.082-7.681.843-1.284 9.082 7.681-.843 1.284zm2.066-3.197l-9.518-7.134.767-1.331 9.518 7.134-.767 1.331zm-2.132-13.277a1.707 1.707 0 012.191-.976 1.71 1.71 0 01.99 2.197 1.713 1.713 0 01-2.211.985 1.71 1.71 0 01-.97-2.206z" fill="#fff"/></svg>