<svg width="78" height="78" fill="none" xmlns="http://www.w3.org/2000/svg"><g style="mix-blend-mode:screen" clip-path="url(#clip0_329_2466)"><path d="M39.002 58.501c10.77 0 19.499-8.73 19.499-19.498 0-10.769-8.73-19.499-19.498-19.499-10.77 0-19.5 8.73-19.5 19.499 0 10.769 8.73 19.498 19.5 19.498z" fill="url(#paint0_radial_329_2466)"/><path d="M39.002 58.501c10.77 0 19.499-8.73 19.499-19.498 0-10.769-8.73-19.499-19.498-19.499-10.77 0-19.5 8.73-19.5 19.499 0 10.769 8.73 19.498 19.5 19.498z" fill="url(#paint1_radial_329_2466)"/><path d="M39.777 39.777C60.95 39.77 78 39.425 78 38.997c0-.427-17.044-.768-38.223-.78-.006-21.173-.353-38.223-.78-38.223-.427 0-.768 17.044-.78 38.223-21.173.006-38.223.353-38.223.78 0 .428 17.044.768 38.223.78.006 21.173.353 38.223.78 38.223.427 0 .768-17.044.78-38.223z" fill="url(#paint2_radial_329_2466)"/><path d="M40.1 39.003C55.066 24.02 66.877 11.724 66.577 11.424c-.3-.3-12.596 11.505-27.579 26.476-14.976-14.97-27.272-26.776-27.572-26.476-.3.3 11.505 12.597 26.475 27.579C22.935 53.985 11.124 66.28 11.425 66.582c.3.3 12.596-11.505 27.578-26.476 14.982 14.965 27.279 26.776 27.579 26.476.3-.3-11.505-12.597-26.476-27.58h-.005z" fill="url(#paint3_radial_329_2466)"/></g><defs><radialGradient id="paint0_radial_329_2466" cx="0" cy="0" r="1" gradientUnits="userSpaceOnUse" gradientTransform="rotate(-45 66.572 -27.579) scale(19.4986)"><stop stop-color="#fff"/><stop offset=".53" stop-color="#8A8483" stop-opacity=".5"/><stop offset="1"/></radialGradient><radialGradient id="paint1_radial_329_2466" cx="0" cy="0" r="1" gradientUnits="userSpaceOnUse" gradientTransform="translate(39.002 39.003) scale(19.4986)"><stop stop-color="#fff"/><stop offset=".53" stop-color="#8A8483" stop-opacity=".5"/><stop offset="1"/></radialGradient><radialGradient id="paint2_radial_329_2466" cx="0" cy="0" r="1" gradientUnits="userSpaceOnUse" gradientTransform="translate(39.003 39.003) scale(39.0029)"><stop stop-color="#fff"/><stop offset="1"/></radialGradient><radialGradient id="paint3_radial_329_2466" cx="0" cy="0" r="1" gradientUnits="userSpaceOnUse" gradientTransform="rotate(-45 66.572 -27.58) scale(39.0029)"><stop stop-color="#fff"/><stop offset="1"/></radialGradient><clipPath id="clip0_329_2466"><path fill="#fff" d="M0 0h78v78H0z"/></clipPath></defs></svg>