<svg width="288" height="112" fill="none" xmlns="http://www.w3.org/2000/svg"><g style="mix-blend-mode:screen"><path d="M144 80.126c13.317 0 24.112-10.804 24.112-24.131 0-13.328-10.795-24.131-24.112-24.131-13.317 0-24.112 10.803-24.112 24.13 0 13.328 10.795 24.132 24.112 24.132z" fill="url(#paint0_radial_329_2490)"/><path d="M145.628 56.961c78.771 0 142.361-.434 142.361-.966 0-.533-63.59-.956-142.361-.967 8.605-8.677 15.094-15.747 14.736-16.095-.358-.347-7.422 6.136-16.092 14.748C144.25 23.838 143.827 0 143.306 0c-.521 0-.944 23.838-.966 53.681-8.67-8.612-15.735-15.106-16.093-14.748-.358.359 6.131 7.429 14.737 16.095-78.143 0-141.005.434-141.005.967 0 .532 62.863.955 141.005.966-8.606 8.677-15.095 15.747-14.737 16.095.358.347 7.423-6.136 16.093-14.748.022 29.843.445 53.681.966 53.681.521 0 .944-23.838.966-53.681 8.67 8.612 15.734 15.106 16.092 14.748.358-.359-6.131-7.428-14.736-16.095z" fill="url(#paint1_radial_329_2490)"/></g><defs><radialGradient id="paint0_radial_329_2490" cx="0" cy="0" r="1" gradientUnits="userSpaceOnUse" gradientTransform="matrix(24.1121 0 0 24.1311 144 55.995)"><stop stop-color="#fff"/><stop offset=".06" stop-color="#E5E5E5"/><stop offset=".21" stop-color="#A9A9A9"/><stop offset=".35" stop-color="#757575"/><stop offset=".5" stop-color="#4B4B4B"/><stop offset=".64" stop-color="#2A2A2A"/><stop offset=".77" stop-color="#131313"/><stop offset=".89" stop-color="#040404"/><stop offset="1"/></radialGradient><radialGradient id="paint1_radial_329_2490" cx="0" cy="0" r="1" gradientUnits="userSpaceOnUse" gradientTransform="matrix(109.243 0 0 109.328 144 55.995)"><stop stop-color="#fff"/><stop offset=".06" stop-color="#E5E5E5"/><stop offset=".21" stop-color="#A9A9A9"/><stop offset=".35" stop-color="#757575"/><stop offset=".5" stop-color="#4B4B4B"/><stop offset=".64" stop-color="#2A2A2A"/><stop offset=".77" stop-color="#131313"/><stop offset=".89" stop-color="#040404"/><stop offset="1"/></radialGradient></defs></svg>