<svg width="49" height="98" fill="none" xmlns="http://www.w3.org/2000/svg"><g style="mix-blend-mode:screen" clip-path="url(#clip0_329_2475)"><path d="M24.496 73.502c6.765 0 12.248-10.968 12.248-24.498 0-13.53-5.483-24.499-12.248-24.499-6.764 0-12.248 10.969-12.248 24.499s5.484 24.498 12.248 24.498z" fill="url(#paint0_radial_329_2475)"/><path d="M24.01 49.976c0 26.602.225 48.024.486 48.024.262 0 .487-21.414.487-48.024 13.3-.007 24.01-.443 24.01-.98 0-.537-10.71-.965-24.01-.98 0-26.602-.225-48.023-.487-48.023-.26 0-.486 21.414-.486 48.023-13.3.008-24.01.443-24.01.98 0 .537 10.71.965 24.01.98z" fill="url(#paint1_radial_329_2475)"/></g><defs><radialGradient id="paint0_radial_329_2475" cx="0" cy="0" r="1" gradientUnits="userSpaceOnUse" gradientTransform="scale(12.2482 24.4982) rotate(90 0 2)"><stop offset=".06" stop-color="#fff"/><stop offset=".14" stop-color="#D3D3D3" stop-opacity=".91"/><stop offset=".25" stop-color="#949494" stop-opacity=".79"/><stop offset=".36" stop-color="#5F5F5F" stop-opacity=".69"/><stop offset=".47" stop-color="#353535" stop-opacity=".61"/><stop offset=".56" stop-color="#181818" stop-opacity=".55"/><stop offset=".64" stop-color="#060606" stop-opacity=".51"/><stop offset=".7" stop-opacity=".5"/></radialGradient><radialGradient id="paint1_radial_329_2475" cx="0" cy="0" r="1" gradientUnits="userSpaceOnUse" gradientTransform="scale(24.5 49.0036) rotate(90 0 1)"><stop stop-color="#fff"/><stop offset="1"/></radialGradient><clipPath id="clip0_329_2475"><path fill="#fff" d="M0 0h49v98H0z"/></clipPath></defs></svg>