<svg width="346" height="134" fill="none" xmlns="http://www.w3.org/2000/svg"><path d="M174.476 68.15c94.361 0 170.537-.52 170.537-1.157 0-.636-76.176-1.143-170.537-1.156 10.308-10.382 18.082-18.84 17.653-19.256-.429-.416-8.892 7.341-19.278 17.645C172.825 28.52 172.318 0 171.694 0s-1.131 28.52-1.157 64.226c-10.386-10.304-18.849-18.074-19.278-17.645-.429.429 7.345 8.887 17.653 19.256C75.305 65.837 0 66.357 0 66.993c0 .637 75.305 1.144 168.912 1.157-10.308 10.382-18.082 18.84-17.653 19.256.429.416 8.892-7.341 19.278-17.645.026 35.706.533 64.226 1.157 64.226s1.131-28.52 1.157-64.226c10.386 10.304 18.849 18.074 19.278 17.645.429-.429-7.345-8.887-17.653-19.256z" fill="url(#paint0_radial_329_2486)"/><defs><radialGradient id="paint0_radial_329_2486" cx="0" cy="0" r="1" gradientUnits="userSpaceOnUse" gradientTransform="matrix(130.863 0 0 130.804 172.526 66.993)"><stop stop-color="#fff"/><stop offset=".06" stop-color="#E5E5E5"/><stop offset=".21" stop-color="#A9A9A9"/><stop offset=".35" stop-color="#757575"/><stop offset=".5" stop-color="#4B4B4B"/><stop offset=".64" stop-color="#2A2A2A"/><stop offset=".77" stop-color="#131313"/><stop offset=".89" stop-color="#040404"/><stop offset="1"/></radialGradient></defs></svg>