<svg width="126" height="128" fill="none" xmlns="http://www.w3.org/2000/svg"><g style="mix-blend-mode:screen" clip-path="url(#clip0_329_2424)"><path d="M63.005 96.002c17.395 0 31.497-14.325 31.497-31.997S80.4 32.007 63.005 32.007c-17.396 0-31.498 14.326-31.498 31.998s14.102 31.997 31.497 31.997z" fill="url(#paint0_radial_329_2424)"/><path d="M63.005 96.002c17.395 0 31.497-14.325 31.497-31.997S80.4 32.007 63.005 32.007c-17.396 0-31.498 14.326-31.498 31.998s14.102 31.997 31.497 31.997z" fill="url(#paint1_radial_329_2424)"/><path d="M64.254 65.275c34.204-.01 61.746-.578 61.746-1.28 0-.701-27.533-1.26-61.746-1.28-.009-34.746-.569-62.724-1.26-62.724-.69 0-1.24 27.97-1.259 62.725-34.203.01-61.745.578-61.745 1.28 0 .7 27.533 1.26 61.745 1.279.01 34.746.57 62.725 1.26 62.725.69 0 1.24-27.969 1.26-62.725z" fill="url(#paint2_radial_329_2424)"/><path d="M64.777 64.005c24.174-24.586 43.254-44.765 42.768-45.258-.485-.492-20.348 18.88-44.55 43.447-24.192-24.567-44.056-43.94-44.54-43.447-.486.493 18.584 20.672 42.767 45.258C37.05 88.59 17.97 108.769 18.454 109.262c.485.493 20.349-18.88 44.55-43.447 24.202 24.558 44.066 43.94 44.551 43.447.485-.493-18.585-20.671-42.769-45.257h-.009z" fill="url(#paint3_radial_329_2424)"/></g><defs><radialGradient id="paint0_radial_329_2424" cx="0" cy="0" r="1" gradientUnits="userSpaceOnUse" gradientTransform="matrix(22.2722 -22.6257 22.62292 22.26947 63 63.993)"><stop stop-color="#fff"/><stop offset=".53" stop-color="#8A8483" stop-opacity=".5"/><stop offset="1"/></radialGradient><radialGradient id="paint1_radial_329_2424" cx="0" cy="0" r="1" gradientUnits="userSpaceOnUse" gradientTransform="matrix(31.4977 0 0 31.9976 63.005 64.005)"><stop stop-color="#fff"/><stop offset=".53" stop-color="#8A8483" stop-opacity=".5"/><stop offset="1"/></radialGradient><radialGradient id="paint2_radial_329_2424" cx="0" cy="0" r="1" gradientUnits="userSpaceOnUse" gradientTransform="matrix(63.0047 0 0 64.0047 63.004 64.005)"><stop stop-color="#fff"/><stop offset="1"/></radialGradient><radialGradient id="paint3_radial_329_2424" cx="0" cy="0" r="1" gradientUnits="userSpaceOnUse" gradientTransform="matrix(44.55108 -45.25818 45.25255 44.54553 63 63.993)"><stop stop-color="#fff"/><stop offset="1"/></radialGradient><clipPath id="clip0_329_2424"><path fill="#fff" d="M0 0h126v128H0z"/></clipPath></defs></svg>